<svg xmlns="http://www.w3.org/2000/svg" viewBox="0 0 800 800" width="800" height="800">
        <!-- Bulbous Head -->
        <path d="M 230 400 C 210 200 590 200 570 400 C 570 450 510 490 400 490 C 290 490 230 450 230 400 Z"
              stroke="#1A1A24" stroke-width="14" stroke-linejoin="round" fill="none" />
        <!-- Tentacles -->
        <g stroke="#1A1A24" stroke-width="12" stroke-linecap="round" fill="none">
          <path d="M 260 480 Q 200 570 170 660 Q 150 720 210 710 Q 250 700 240 640" />
          <path d="M 330 490 Q 290 600 310 680 Q 320 730 360 700" />
          <path d="M 400 490 Q 400 620 400 710" />
          <path d="M 470 490 Q 510 600 490 680 Q 480 730 440 700" />
          <path d="M 540 480 Q 600 570 630 660 Q 650 720 590 710 Q 550 700 560 640" />
        </g>
        <!-- Big Cute Eyes -->
        <circle cx="340" cy="360" r="24" fill="#1A1A24" />
        <circle cx="347" cy="352" r="8" fill="#FFFFFF" />
        <circle cx="460" cy="360" r="24" fill="#1A1A24" />
        <circle cx="467" cy="352" r="8" fill="#FFFFFF" />
        <!-- Rosy Cheeks -->
        <circle cx="290" cy="410" r="22" stroke="#1A1A24" stroke-width="6" stroke-dasharray="4,6" fill="none" />
        <circle cx="510" cy="410" r="22" stroke="#1A1A24" stroke-width="6" stroke-dasharray="4,6" fill="none" />
        <!-- Happy Smile -->
        <path d="M 360 410 Q 400 460 440 410" stroke="#1A1A24" stroke-width="11" stroke-linecap="round" fill="none" />
        <!-- Ocean Bubbles -->
        <circle cx="620" cy="240" r="25" stroke="#1A1A24" stroke-width="8" fill="none" />
        <circle cx="670" cy="160" r="15" stroke="#1A1A24" stroke-width="7" fill="none" />
        <circle cx="160" cy="280" r="20" stroke="#1A1A24" stroke-width="8" fill="none" />
      </svg>